# xmcd
#
# Track frame offsets: 
#        150
#        26510
#        46689
#        64928
#        82916
#        100876
#        119456
#        136572
#        161860
#        185601
#        205157
#        220735
#        245762
#
# Disc length: 3557 seconds
#
# Revision: 6
# Processed by: cddbd v1.5.2PL0 Copyright (c) Steve Scherf et al.
# Submitted via: ExactAudioCopyFreeDBPlugin 1.0
#
DISCID=b00de30d
DTITLE=Changing Faces - Changing Faces
DYEAR=1994
DGENRE=R&B
TTITLE0=Stroke You Up
TTITLE1=Foolin' Around
TTITLE2=Lovin' Ya Boy
TTITLE3=One Of Those Things
TTITLE4=Keep It Right There
TTITLE5=Am I Wasting My Time
TTITLE6=Feeling All This Love
TTITLE7=Thoughts Of You
TTITLE8=Come Closer
TTITLE9=Baby Your Love
TTITLE10=Movin' On
TTITLE11=Good Thing
TTITLE12=All Is Not Gone
EXTD=
EXTT0=
EXTT1=
EXTT2=
EXTT3=
EXTT4=
EXTT5=
EXTT6=
EXTT7=
EXTT8=
EXTT9=
EXTT10=
EXTT11=
EXTT12=
PLAYORDER=
